HIERARCHY
ROOT Hips
{
 OFFSET 0.000000 0.000000 0.000000
 CHANNELS 6 Xposition Yposition Zposition Yrotation Xrotation Zrotation
 JOINT Chest
 {
  OFFSET 0.000000 9.303000 0.001900
  CHANNELS 3 Yrotation Xrotation Zrotation
  JOINT Chest2
  {
   OFFSET 0.000000 9.301100 -0.003900
   CHANNELS 3 Yrotation Xrotation Zrotation
   JOINT Chest3
   {
    OFFSET 0.000000 9.262800 0.000000
    CHANNELS 3 Yrotation Xrotation Zrotation
    JOINT Chest4
    {
     OFFSET 0.000000 9.253300 0.000000
     CHANNELS 3 Yrotation Xrotation Zrotation
     JOINT Neck
     {
      OFFSET 0.000000 14.010300 0.000000
      CHANNELS 3 Yrotation Xrotation Zrotation
      JOINT Head
      {
       OFFSET 0.000000 8.657600 -0.008300
       CHANNELS 3 Yrotation Xrotation Zrotation
       End Site
       {
        OFFSET 0.000000 16.540200 -0.004400
       }
      }
     }
     JOINT RightCollar
     {
      OFFSET -2.834100 9.267700 0.000000
      CHANNELS 3 Yrotation Xrotation Zrotation
      JOINT RightShoulder
      {
       OFFSET -13.135200 0.000000 0.000000
       CHANNELS 3 Yrotation Xrotation Zrotation
       JOINT RightElbow
       {
        OFFSET 0.000000 -28.893500 0.000000
        CHANNELS 3 Yrotation Xrotation Zrotation
        JOINT RightWrist
        {
         OFFSET 0.000000 -23.344000 0.000000
         CHANNELS 3 Yrotation Xrotation Zrotation
         End Site
         {
          OFFSET 0.000000 -17.223000 0.000000
         }
        }
       }
      }
     }
     JOINT LeftCollar
     {
      OFFSET 2.834100 9.267700 0.000000
      CHANNELS 3 Yrotation Xrotation Zrotation
      JOINT LeftShoulder
      {
       OFFSET 13.135200 0.000000 0.000000
       CHANNELS 3 Yrotation Xrotation Zrotation
       JOINT LeftElbow
       {
        OFFSET 0.000000 -28.893500 0.000000
        CHANNELS 3 Yrotation Xrotation Zrotation
        JOINT LeftWrist
        {
         OFFSET 0.000000 -23.344000 0.000000
         CHANNELS 3 Yrotation Xrotation Zrotation
         End Site
         {
          OFFSET 0.000000 -17.223000 0.000000
         }
        }
       }
      }
     }
    }
   }
  }
 }
 JOINT RightHip
 {
  OFFSET -7.547200 -0.009500 -0.001000
  CHANNELS 3 Yrotation Xrotation Zrotation
  JOINT RightKnee
  {
   OFFSET 0.000000 -39.762800 0.000900
   CHANNELS 3 Yrotation Xrotation Zrotation
   JOINT RightAnkle
   {
    OFFSET 0.000000 -38.588200 0.001600
    CHANNELS 3 Yrotation Xrotation Zrotation
    JOINT RightToe
    {
     OFFSET 0.000000 -4.693300 10.419700
     CHANNELS 3 Yrotation Xrotation Zrotation
     End Site
     {
      OFFSET 0.000000 -1.379900 5.669300
     }
    }
   }
  }
 }
 JOINT LeftHip
 {
  OFFSET 7.547200 -0.009500 -0.001000
  CHANNELS 3 Yrotation Xrotation Zrotation
  JOINT LeftKnee
  {
   OFFSET 0.000000 -39.762800 0.000900
   CHANNELS 3 Yrotation Xrotation Zrotation
   JOINT LeftAnkle
   {
    OFFSET 0.000000 -38.588200 0.001600
    CHANNELS 3 Yrotation Xrotation Zrotation
    JOINT LeftToe
    {
     OFFSET 0.000000 -4.693300 10.419700
     CHANNELS 3 Yrotation Xrotation Zrotation
     End Site
     {
      OFFSET 0.000000 -1.379900 5.669300
     }
    }
   }
  }
 }
}
MOTION
Frames: 16
Frame Time: 0.008333
2.472563 45.438004 7.841133 179.729647 -12.668908 -1.117580 1.828288 6.536024 0.020566 0.119992 0.309773 -0.000532 0.210164 0.542764 -0.000428 2.560879 6.586072 0.129527 -2.116578 22.601630 0.165008 -2.314595 -1.497418 0.661205 6.514385 0.398980 -7.182116 -3.118215 -20.260737 -18.850993 -11.695790 -82.543713 27.943955 -10.818248 -6.867687 -6.520761 -11.356536 -5.696618 -2.398081 -0.479087 -22.887439 19.177510 60.808931 -72.919912 -95.108006 6.098319 -1.630383 0.401604 -14.902385 -75.848283 -1.815124 -157.249414 80.047358 -158.254746 -10.463450 -23.608851 6.053752 -0.676984 -0.319622 -0.018883 -26.919209 -73.459725 23.994587 85.525361 74.020710 89.100868 -9.334639 -6.975228 -7.180397 1.238286 0.481834 0.420403
2.494006 45.431549 7.843008 179.758539 -12.833073 -1.119312 1.784777 6.510852 -0.033143 0.114128 0.302415 -0.002135 0.200008 0.530122 -0.003296 2.469363 6.524689 0.088214 -2.191993 22.816112 0.216072 -2.409822 -1.239440 0.733602 6.729987 0.326099 -7.134053 -2.332258 -20.427163 -19.206577 -5.365765 -80.294333 20.923732 -10.630362 -6.949152 -6.890610 -11.293956 -5.735066 -2.386494 -0.739795 -22.687638 19.649698 58.100380 -73.283618 -92.246649 5.844908 -1.666594 0.232301 -15.089250 -75.697361 -1.628744 -157.020032 80.028653 -158.127685 -10.493387 -23.577543 6.016850 -0.643776 -0.310995 -0.031980 -26.843216 -73.280416 23.907844 85.486165 74.046744 89.018170 -9.310513 -7.018024 -7.194466 1.221175 0.529990 0.450737
2.511739 45.424903 7.850948 179.802510 -12.955117 -1.140059 1.699144 6.444321 -0.069646 0.107770 0.294840 -0.003542 0.188988 0.517103 -0.005832 2.366459 6.461428 0.049610 -2.279365 23.028393 0.259005 -2.516301 -0.982843 0.800083 6.936416 0.225830 -7.108259 -1.498207 -20.616865 -19.562993 -2.292568 -77.762644 17.252279 -10.482328 -7.105192 -7.620588 -11.212180 -5.760880 -2.381228 -0.993124 -22.478224 20.090047 54.945540 -73.597345 -88.924199 5.498599 -1.664099 0.076083 -15.293555 -75.579499 -1.440673 -156.893909 80.024490 -158.094880 -10.496295 -23.546081 6.008629 -0.664904 -0.320546 -0.029368 -26.809379 -73.145148 23.873766 85.379593 73.999000 88.891918 -9.417359 -7.039431 -7.228550 1.253415 0.569894 0.494857
2.519604 45.420346 7.853665 179.812867 -13.107811 -1.128236 1.617765 6.406306 -0.129561 0.100982 0.287074 -0.004769 0.177258 0.503843 -0.008032 2.252649 6.396585 0.013892 -2.377958 23.240176 0.292185 -2.632993 -0.725635 0.858740 7.133136 0.103669 -7.102487 -0.606132 -20.824142 -19.930064 -1.412552 -75.024827 15.831197 -10.439142 -7.393287 -8.856734 -11.112369 -5.770836 -2.380323 -1.230289 -22.256906 20.493575 51.387291 -73.863018 -85.175199 5.077002 -1.591031 -0.040697 -15.171141 -75.437339 -1.566831 -156.819685 80.020830 -158.067361 -10.488119 -23.537358 6.021413 -0.644075 -0.307247 -0.046862 -26.569173 -73.007686 23.646547 85.342587 73.984552 88.836395 -9.411520 -7.044893 -7.227629 1.212612 0.589057 0.505006
2.526925 45.416430 7.857292 179.807997 -13.253713 -1.142028 1.529216 6.359072 -0.161154 0.094005 0.279482 -0.005849 0.165128 0.490850 -0.010007 2.130366 6.333246 -0.020390 -2.486766 23.449297 0.314236 -2.758474 -0.470317 0.907781 7.318646 -0.036139 -7.112580 0.364613 -21.048143 -20.326668 -2.092386 -72.147826 15.963106 -10.521343 -7.783548 -10.628424 -10.996995 -5.770658 -2.376971 -1.446242 -22.015616 20.851761 47.493057 -74.117053 -81.035472 4.615612 -1.472180 -0.058101 -15.321545 -75.297063 -1.380477 -156.601763 80.019634 -157.952521 -10.532467 -23.500338 6.026073 -0.652478 -0.293115 -0.061411 -26.360315 -72.869910 23.539365 85.336910 73.991099 88.777482 -9.498398 -7.074677 -7.197645 1.219135 0.617710 0.540629
2.534318 45.413643 7.858810 179.794576 -13.413207 -1.182480 1.427108 6.325757 -0.165845 0.087139 0.272376 -0.006872 0.153076 0.478544 -0.011893 2.004405 6.273308 -0.054395 -2.604032 23.653432 0.324921 -2.890687 -0.219831 0.946487 7.490752 -0.182857 -7.131555 1.430009 -21.295178 -20.763866 -3.802848 -69.177788 17.082643 -10.687417 -8.156465 -12.846234 -10.865992 -5.766239 -2.362648 -1.639842 -21.746497 21.149572 43.272711 -74.396074 -76.486157 4.156151 -1.371045 0.080318 -15.551371 -75.133495 -1.106221 -156.343798 80.010468 -157.784902 -10.572579 -23.473944 6.008234 -0.606662 -0.257382 -0.104443 -26.162044 -72.719835 23.470828 85.369013 74.006750 88.752981 -9.572709 -7.101941 -7.143083 1.236103 0.641187 0.571512
2.533902 45.411185 7.860249 179.760311 -13.574540 -1.193594 1.319073 6.295530 -0.197045 0.080386 0.265499 -0.007920 0.141305 0.466638 -0.013749 1.877187 6.213927 -0.088855 -2.727057 23.853317 0.324920 -3.026830 0.026557 0.974991 7.652026 -0.318852 -7.149828 2.542848 -21.577517 -21.213815 -5.936663 -66.160289 18.631542 -10.936773 -8.378261 -15.368235 -10.717896 -5.752424 -2.333494 -1.818209 -21.446131 21.377628 38.683885 -74.695075 -71.470187 3.768069 -1.307717 0.384573 -15.443033 -74.976207 -1.162121 -156.238161 80.012542 -157.714542 -10.581150 -23.462551 5.969090 -0.615708 -0.236926 -0.085572 -25.850915 -72.585283 23.294065 85.412345 74.030150 88.749715 -9.626580 -7.111131 -7.081059 1.210142 0.644342 0.587201
2.531169 45.408463 7.864555 179.703557 -13.720217 -1.204157 1.213130 6.252112 -0.224517 0.073765 0.258337 -0.008982 0.129802 0.454324 -0.015622 1.750255 6.149447 -0.124538 -2.852713 24.048888 0.316179 -3.164118 0.268629 0.994577 7.806468 -0.433045 -7.157992 3.591098 -21.899919 -21.621825 -7.920842 -63.204769 20.103844 -11.300959 -8.322970 -17.982292 -10.549365 -5.718709 -2.289129 -2.010574 -21.107825 21.539041 33.693382 -74.955684 -65.931608 3.524217 -1.269636 0.784706 -15.217189 -74.836941 -1.303152 -156.174482 80.018895 -157.652972 -10.622941 -23.438810 5.989955 -0.634817 -0.226025 -0.118699 -25.518487 -72.468584 23.125222 85.452024 74.071695 88.746769 -9.674519 -7.123149 -6.991545 1.216794 0.651369 0.581037
2.525089 45.405456 7.872483 179.621489 -13.845848 -1.202889 1.114816 6.197278 -0.257247 0.067354 0.250682 -0.009986 0.118583 0.441113 -0.017434 1.625326 6.076512 -0.160397 -2.979685 24.236650 0.299680 -3.301324 0.502049 1.005996 7.961862 -0.520881 -7.147656 4.476344 -22.234001 -21.971243 -9.491158 -60.498327 21.254971 -11.717774 -7.876550 -20.371432 -10.355513 -5.659475 -2.229234 -2.269609 -20.720366 21.635517 28.387760 -75.091546 -59.922553 3.417057 -1.245723 1.180714 -14.850412 -74.721355 -1.540772 -156.091877 80.034558 -157.538119 -10.724310 -23.410840 5.989294 -0.598452 -0.205814 -0.112239 -25.139206 -72.376572 22.936355 85.478834 74.130092 88.735066 -9.686911 -7.130057 -6.924431 1.227083 0.663118 0.581794
2.515200 45.402712 7.883329 179.521701 -13.955793 -1.185269 1.021888 6.140929 -0.298666 0.061352 0.242758 -0.010930 0.107991 0.427404 -0.019215 1.506043 5.997131 -0.196261 -3.109178 24.410087 0.276144 -3.439702 0.718851 1.010360 8.124906 -0.589792 -7.109374 5.181518 -22.511670 -22.288221 -10.609618 -58.252843 22.034675 -12.082904 -7.020261 -22.274470 -10.143063 -5.578745 -2.154485 -2.622298 -20.277154 21.665533 23.072446 -75.043978 -53.756892 3.335134 -1.182914 1.537171 -14.552607 -74.619325 -1.719912 -156.117579 80.068559 -157.559678 -10.738108 -23.421738 5.933930 -0.557942 -0.155750 -0.077232 -24.704116 -72.306626 22.708219 85.491681 74.205161 88.711636 -9.676439 -7.127855 -6.862385 1.184561 0.660632 0.611408
2.512536 45.400224 7.900277 179.403901 -14.031038 -1.217043 0.950085 6.066584 -0.280286 0.056086 0.234992 -0.011908 0.098702 0.414019 -0.021046 1.399609 5.915916 -0.232666 -3.245168 24.560947 0.248112 -3.584079 0.908978 1.011155 8.286454 -0.652909 -7.040217 5.753802 -22.665226 -22.589248 -11.264670 -56.625039 22.408432 -12.295528 -5.901050 -23.598112 -9.938813 -5.484323 -2.077294 -3.014607 -19.794164 21.641613 18.153125 -74.801224 -47.927267 3.131918 -0.975524 1.841661 -14.444882 -74.539739 -1.688143 -156.193875 80.112953 -157.635683 -10.673379 -23.398359 5.903894 -0.540672 -0.141820 -0.085160 -24.430752 -72.246988 22.662636 85.443075 74.292201 88.680442 -9.731645 -7.141632 -6.835295 1.238068 0.675928 0.624883
2.487962 45.398784 7.919562 179.176037 -14.094888 -1.094943 0.974045 6.000611 -0.381610 0.051642 0.227816 -0.012844 0.090964 0.401611 -0.022657 1.309600 5.837373 -0.266310 -3.389003 24.681909 0.216781 -3.736137 1.063452 1.009959 8.430348 -0.717134 -6.952551 6.220392 -22.674815 -22.846304 -11.367093 -55.655060 22.307984 -12.280811 -4.740968 -24.360299 -9.766781 -5.377053 -2.022931 -3.332732 -19.319527 21.586453 13.924744 -74.373136 -42.859370 2.735309 -0.540370 2.018629 -13.622610 -74.522897 -2.250267 -156.305191 80.174472 -157.724245 -10.748929 -23.359985 5.914756 -0.482966 -0.097253 -0.075786 -23.819908 -72.235456 22.326752 85.489911 74.348799 88.626868 -9.529995 -7.047606 -6.644890 1.013575 0.616546 0.520679
2.469848 45.398656 7.944739 179.016802 -14.125196 -1.037103 0.934615 5.918951 -0.424902 0.047881 0.221466 -0.013409 0.084371 0.390618 -0.023600 1.232002 5.765943 -0.290135 -3.536740 24.766963 0.181268 -3.891245 1.174385 1.005158 8.545688 -0.786241 -6.869749 6.531255 -22.581005 -22.988329 -10.752451 -55.274945 21.670544 -12.129464 -3.750807 -24.624385 -9.625726 -5.242429 -2.010139 -3.470290 -18.915741 21.514462 10.476844 -73.796790 -38.774033 2.218383 0.113484 1.976079 -13.064857 -74.523520 -2.609296 -156.263242 80.220355 -157.646211 -10.799796 -23.287800 5.938625 -0.470972 -0.100033 -0.095921 -23.221387 -72.259400 22.025153 85.434351 74.478610 88.529499 -9.501261 -7.036919 -6.496373 0.967425 0.613300 0.511941
2.451583 45.401396 7.970103 178.870416 -14.160417 -0.988895 0.879288 5.855156 -0.446756 0.044583 0.216203 -0.013395 0.078577 0.381571 -0.023565 1.161929 5.707079 -0.298308 -3.685322 24.810310 0.140913 -4.045714 1.234231 0.995351 8.620280 -0.860153 -6.815046 6.618683 -22.445717 -22.970367 -9.358200 -55.369163 20.533675 -12.025582 -3.185727 -24.488020 -9.499187 -5.066036 -2.040551 -3.383588 -18.615717 21.436497 7.806873 -73.135461 -35.742028 1.705525 0.906119 1.692035 -12.578380 -74.511344 -2.910726 -156.053570 80.257490 -157.400733 -10.856303 -23.238082 5.917335 -0.438560 -0.075515 -0.051747 -22.609756 -72.276863 21.700631 85.327835 74.600896 88.408958 -9.519707 -7.017078 -6.376620 0.962198 0.601512 0.519995
2.428217 45.406705 7.996651 178.721197 -14.195611 -0.915926 0.823452 5.803032 -0.475977 0.041637 0.212314 -0.012837 0.073497 0.374881 -0.022524 1.097695 5.664512 -0.289963 -3.834379 24.808312 0.097539 -4.199420 1.238650 0.982276 8.639569 -0.935361 -6.796802 6.492572 -22.287018 -22.845137 -7.332387 -55.864657 19.046517 -11.993465 -3.253794 -24.139164 -9.377397 -4.862494 -2.108197 -3.104530 -18.379538 21.375935 5.968927 -72.462993 -33.794128 1.245199 1.744191 1.233205 -12.073059 -74.508901 -3.243601 -155.765129 80.288499 -157.099270 -10.883218 -23.174166 5.914904 -0.412056 -0.064081 -0.028279 -21.981760 -72.292015 21.337618 85.220534 74.691317 88.262476 -9.503369 -6.976527 -6.259216 0.914148 0.584748 0.519341
2.401902 45.414027 8.026164 178.560285 -14.221398 -0.828681 0.784821 5.754435 -0.503757 0.039147 0.209662 -0.011889 0.069137 0.370317 -0.020833 1.040692 5.636397 -0.269649 -3.984542 24.761223 0.056803 -4.354373 1.188061 0.972370 8.592241 -1.007607 -6.803853 6.230552 -22.085184 -22.724530 -4.919128 -56.744859 17.373944 -11.877615 -3.873847 -23.821156 -9.270623 -4.664635 -2.203573 -2.693959 -18.117755 21.355482 4.970973 -71.859162 -32.864797 0.838053 2.529495 0.697248 -11.624228 -74.540881 -3.521048 -155.427919 80.300022 -156.784140 -10.857097 -23.049882 5.915507 -0.503266 -0.125499 -0.045983 -21.293015 -72.314133 20.931106 85.079354 74.771677 88.080989 -9.513710 -6.944747 -6.131907 0.888146 0.582424 0.505700
